<?xml version="1.0" encoding="UTF-8" standalone="no"?>
<!DOCTYPE svg PUBLIC "-//W3C//DTD SVG 1.1//EN"
 "http://www.w3.org/Graphics/SVG/1.1/DTD/svg11.dtd">
<!-- Generated by graphviz version 2.26.3 (20100126.1600)
 -->
<!-- Title: G Pages: 1 -->
<svg width="604pt" height="1189pt"
 viewBox="0.00 0.00 604.00 1189.08" xmlns="http://www.w3.org/2000/svg" xmlns:xlink="http://www.w3.org/1999/xlink">
<g id="graph1" class="graph" transform="scale(1 1) rotate(0) translate(4 1185.08)">
<title>G</title>
<polygon fill="white" stroke="white" points="-4,5 -4,-1185.08 601,-1185.08 601,5 -4,5"/>
<g id="graph2" class="cluster"><title>cluster_global</title>
<polyline fill="none" stroke="gray" points="238,-181.084 576,-181.084 "/>
<path fill="none" stroke="gray" d="M576,-181.084C582,-181.084 588,-187.084 588,-193.084"/>
<polyline fill="none" stroke="gray" points="588,-193.084 588,-1161.08 "/>
<path fill="none" stroke="gray" d="M588,-1161.08C588,-1167.08 582,-1173.08 576,-1173.08"/>
<polyline fill="none" stroke="gray" points="576,-1173.08 238,-1173.08 "/>
<path fill="none" stroke="gray" d="M238,-1173.08C232,-1173.08 226,-1167.08 226,-1161.08"/>
<polyline fill="none" stroke="gray" points="226,-1161.08 226,-193.084 "/>
<path fill="none" stroke="gray" d="M226,-193.084C226,-187.084 232,-181.084 238,-181.084"/>
<text text-anchor="middle" x="407" y="-1159.18" font-family="Times Roman,serif" font-size="11.00" fill="gray">global</text>
</g>
<!-- \\FacebookApiException -->
<g id="node2" class="node"><title>\\FacebookApiException</title>
<a xlink:href="libraries.facebook.base_facebook.html" xlink:title="FacebookApiException" target="_parent">
<polygon fill="none" stroke="black" points="580,-819.084 428,-819.084 428,-783.084 580,-783.084 580,-819.084"/>
<text text-anchor="middle" x="504" y="-798.184" font-family="Courier,monospace" font-size="11.00">FacebookApiException</text>
</a>
</g>
<!-- \\Exception -->
<g id="node23" class="node"><title>\\Exception</title>
<ellipse fill="none" stroke="black" cx="293" cy="-155.084" rx="62.9325" ry="18.3848"/>
<text text-anchor="middle" x="293" y="-151.484" font-family="Times Roman,serif" font-size="14.00" fill="gray">\Exception</text>
</g>
<!-- \\FacebookApiException&#45;&gt;\\Exception -->
<g id="edge3" class="edge"><title>\\FacebookApiException&#45;&gt;\\Exception</title>
<path fill="none" stroke="black" d="M437.357,-783.031C433.881,-780.438 430.712,-777.473 428,-774.084 261.048,-565.39 523.513,-385.327 356,-177.084 354.555,-175.287 352.953,-173.636 351.228,-172.12"/>
<polygon fill="none" stroke="black" points="353.168,-169.206 342.98,-166.298 349.131,-174.924 353.168,-169.206"/>
</g>
<!-- \\BaseFacebook -->
<g id="node3" class="node"><title>\\BaseFacebook</title>
<a xlink:href="libraries.facebook.base_facebook.html" xlink:title="«abstract»&lt;br/&gt;BaseFacebook" target="_parent">
<polygon fill="none" stroke="black" points="342,-1143.08 244,-1143.08 244,-1107.08 342,-1107.08 342,-1143.08"/>
<text text-anchor="start" x="259" y="-1130.52" font-family="Courier,monospace" font-size="11.00">«abstract»</text>
<text text-anchor="start" x="252" y="-1117.32" font-family="Courier,monospace" font-size="11.00">BaseFacebook</text>
</a>
</g>
<!-- \\Facebook -->
<g id="node4" class="node"><title>\\Facebook</title>
<a xlink:href="libraries.facebook.facebook.html" xlink:title="Facebook" target="_parent">
<polygon fill="none" stroke="black" points="539,-1143.08 469,-1143.08 469,-1107.08 539,-1107.08 539,-1143.08"/>
<text text-anchor="middle" x="504" y="-1122.18" font-family="Courier,monospace" font-size="11.00">Facebook</text>
</a>
</g>
<!-- \\Facebook&#45;&gt;\\BaseFacebook -->
<g id="edge5" class="edge"><title>\\Facebook&#45;&gt;\\BaseFacebook</title>
<path fill="none" stroke="black" d="M468.207,-1125.08C436.717,-1125.08 390.231,-1125.08 353.054,-1125.08"/>
<polygon fill="none" stroke="black" points="352.835,-1121.58 342.835,-1125.08 352.835,-1128.58 352.835,-1121.58"/>
</g>
<!-- \\MY_Input -->
<g id="node5" class="node"><title>\\MY_Input</title>
<a xlink:href="libraries.my_input.html" xlink:title="MY_Input" target="_parent">
<polygon fill="none" stroke="black" points="539,-765.084 469,-765.084 469,-729.084 539,-729.084 539,-765.084"/>
<text text-anchor="middle" x="504" y="-744.184" font-family="Courier,monospace" font-size="11.00">MY_Input</text>
</a>
</g>
<!-- \\CI_Input -->
<g id="node26" class="node"><title>\\CI_Input</title>
<ellipse fill="none" stroke="black" cx="293" cy="-101.084" rx="56.0679" ry="18.3848"/>
<text text-anchor="middle" x="293" y="-97.4838" font-family="Times Roman,serif" font-size="14.00" fill="gray">\CI_Input</text>
</g>
<!-- \\MY_Input&#45;&gt;\\CI_Input -->
<g id="edge7" class="edge"><title>\\MY_Input&#45;&gt;\\CI_Input</title>
<path fill="none" stroke="black" d="M468.217,-742.685C453.575,-739.023 437.803,-732.325 428,-720.084 262.323,-513.196 515.022,-340.129 356,-128.084 353.033,-124.127 349.368,-120.743 345.311,-117.851"/>
<polygon fill="none" stroke="black" points="346.905,-114.726 336.53,-112.578 343.301,-120.727 346.905,-114.726"/>
</g>
<!-- \\Template -->
<g id="node6" class="node"><title>\\Template</title>
<a xlink:href="libraries.template.html" xlink:title="Template" target="_parent">
<polygon fill="none" stroke="black" points="539,-981.084 469,-981.084 469,-945.084 539,-945.084 539,-981.084"/>
<text text-anchor="middle" x="504" y="-960.184" font-family="Courier,monospace" font-size="11.00">Template</text>
</a>
</g>
<!-- \\User_model -->
<g id="node7" class="node"><title>\\User_model</title>
<a xlink:href="models.user_model.html" xlink:title="User_model" target="_parent">
<polygon fill="none" stroke="black" points="546,-711.084 462,-711.084 462,-675.084 546,-675.084 546,-711.084"/>
<text text-anchor="middle" x="504" y="-690.184" font-family="Courier,monospace" font-size="11.00">User_model</text>
</a>
</g>
<!-- \\CI_Model -->
<g id="node28" class="node"><title>\\CI_Model</title>
<ellipse fill="none" stroke="black" cx="293" cy="-47.0838" rx="58.1882" ry="18.3848"/>
<text text-anchor="middle" x="293" y="-43.4838" font-family="Times Roman,serif" font-size="14.00" fill="gray">\CI_Model</text>
</g>
<!-- \\User_model&#45;&gt;\\CI_Model -->
<g id="edge9" class="edge"><title>\\User_model&#45;&gt;\\CI_Model</title>
<path fill="none" stroke="black" d="M461.894,-686.923C449.191,-682.996 436.402,-676.576 428,-666.084 262.323,-459.196 515.022,-286.129 356,-74.0838 353.193,-70.3412 349.763,-67.1114 345.967,-64.3251"/>
<polygon fill="none" stroke="black" points="347.521,-61.1721 337.172,-58.907 343.85,-67.132 347.521,-61.1721"/>
</g>
<!-- \\Item_model -->
<g id="node8" class="node"><title>\\Item_model</title>
<a xlink:href="models.item_model.html" xlink:title="Item_model" target="_parent">
<polygon fill="none" stroke="black" points="546,-657.084 462,-657.084 462,-621.084 546,-621.084 546,-657.084"/>
<text text-anchor="middle" x="504" y="-636.184" font-family="Courier,monospace" font-size="11.00">Item_model</text>
</a>
</g>
<!-- \\Item_model&#45;&gt;\\CI_Model -->
<g id="edge11" class="edge"><title>\\Item_model&#45;&gt;\\CI_Model</title>
<path fill="none" stroke="black" d="M461.967,-632.863C449.269,-628.933 436.465,-622.526 428,-612.084 276.076,-424.688 501.895,-266.21 356,-74.0838 353.171,-70.3582 349.725,-67.1401 345.918,-64.3615"/>
<polygon fill="none" stroke="black" points="347.462,-61.2024 337.109,-58.9544 343.801,-67.1683 347.462,-61.2024"/>
</g>
<!-- \\Upload_model -->
<g id="node9" class="node"><title>\\Upload_model</title>
<a xlink:href="models.upload_model.html" xlink:title="Upload_model" target="_parent">
<polygon fill="none" stroke="black" points="553,-603.084 455,-603.084 455,-567.084 553,-567.084 553,-603.084"/>
<text text-anchor="middle" x="504" y="-582.184" font-family="Courier,monospace" font-size="11.00">Upload_model</text>
</a>
</g>
<!-- \\Upload_model&#45;&gt;\\CI_Model -->
<g id="edge13" class="edge"><title>\\Upload_model&#45;&gt;\\CI_Model</title>
<path fill="none" stroke="black" d="M454.933,-576.308C444.706,-572.318 434.94,-566.517 428,-558.084 289.809,-390.155 488.788,-246.317 356,-74.0838 353.144,-70.379 349.679,-67.1753 345.86,-64.4062"/>
<polygon fill="none" stroke="black" points="347.391,-61.2399 337.033,-59.0126 343.741,-67.2131 347.391,-61.2399"/>
</g>
<!-- \\Category -->
<g id="node10" class="node"><title>\\Category</title>
<a xlink:href="models.catergory_model.html" xlink:title="Category" target="_parent">
<polygon fill="none" stroke="black" points="539,-549.084 469,-549.084 469,-513.084 539,-513.084 539,-549.084"/>
<text text-anchor="middle" x="504" y="-528.184" font-family="Courier,monospace" font-size="11.00">Category</text>
</a>
</g>
<!-- \\CI_Controller -->
<g id="node32" class="node"><title>\\CI_Controller</title>
<ellipse fill="none" stroke="black" cx="79" cy="-455.084" rx="79.196" ry="18.3848"/>
<text text-anchor="middle" x="79" y="-451.484" font-family="Times Roman,serif" font-size="14.00" fill="gray">\CI_Controller</text>
</g>
<!-- \\Category&#45;&gt;\\CI_Controller -->
<g id="edge15" class="edge"><title>\\Category&#45;&gt;\\CI_Controller</title>
<path fill="none" stroke="black" d="M468.371,-526.56C453.758,-522.875 437.965,-516.193 428,-504.084 280.92,-325.353 524.281,8.1874 293,-1.08377"/>
</g>
<!-- \\Form -->
<g id="node11" class="node"><title>\\Form</title>
<a xlink:href="controllers.form.html" xlink:title="Form" target="_parent">
<polygon fill="none" stroke="black" points="531,-495.084 477,-495.084 477,-459.084 531,-459.084 531,-495.084"/>
<text text-anchor="middle" x="504" y="-474.184" font-family="Courier,monospace" font-size="11.00">Form</text>
</a>
</g>
<!-- \\Form&#45;&gt;\\CI_Controller -->
<g id="edge17" class="edge"><title>\\Form&#45;&gt;\\CI_Controller</title>
<path fill="none" stroke="black" d="M476.883,-474.329C460.312,-471.186 440.054,-464.463 428,-450.084 294.129,-290.393 501.213,7.26268 293,-1.08377"/>
</g>
<!-- \\Welcome -->
<g id="node12" class="node"><title>\\Welcome</title>
<a xlink:href="controllers.welcome.html" xlink:title="Welcome" target="_parent">
<polygon fill="none" stroke="black" points="536,-441.084 472,-441.084 472,-405.084 536,-405.084 536,-441.084"/>
<text text-anchor="middle" x="504" y="-420.184" font-family="Courier,monospace" font-size="11.00">Welcome</text>
</a>
</g>
<!-- \\Welcome&#45;&gt;\\CI_Controller -->
<g id="edge19" class="edge"><title>\\Welcome&#45;&gt;\\CI_Controller</title>
<path fill="none" stroke="black" d="M471.708,-419.115C456.327,-415.563 438.944,-408.834 428,-396.084 307.164,-255.306 478.377,6.34726 293,-1.08377"/>
</g>
<!-- \\User -->
<g id="node13" class="node"><title>\\User</title>
<a xlink:href="controllers.user.html" xlink:title="User" target="_parent">
<polygon fill="none" stroke="black" points="531,-927.084 477,-927.084 477,-891.084 531,-891.084 531,-927.084"/>
<text text-anchor="middle" x="504" y="-906.184" font-family="Courier,monospace" font-size="11.00">User</text>
</a>
</g>
<!-- \\Auth_Controller -->
<g id="node21" class="node"><title>\\Auth_Controller</title>
<a xlink:href="core.MY_Controller.html" xlink:title="Auth_Controller" target="_parent">
<polygon fill="none" stroke="black" points="352,-927.084 234,-927.084 234,-891.084 352,-891.084 352,-927.084"/>
<text text-anchor="middle" x="293" y="-906.184" font-family="Courier,monospace" font-size="11.00">Auth_Controller</text>
</a>
</g>
<!-- \\User&#45;&gt;\\Auth_Controller -->
<g id="edge21" class="edge"><title>\\User&#45;&gt;\\Auth_Controller</title>
<path fill="none" stroke="black" d="M476.847,-909.084C448.137,-909.084 401.691,-909.084 362.667,-909.084"/>
<polygon fill="none" stroke="black" points="362.402,-905.584 352.402,-909.084 362.402,-912.584 362.402,-905.584"/>
</g>
<!-- \\item -->
<g id="node14" class="node"><title>\\item</title>
<a xlink:href="controllers.item.html" xlink:title="item" target="_parent">
<polygon fill="none" stroke="black" points="531,-873.084 477,-873.084 477,-837.084 531,-837.084 531,-873.084"/>
<text text-anchor="middle" x="504" y="-852.184" font-family="Courier,monospace" font-size="11.00">item</text>
</a>
</g>
<!-- \\item&#45;&gt;\\Auth_Controller -->
<g id="edge23" class="edge"><title>\\item&#45;&gt;\\Auth_Controller</title>
<path fill="none" stroke="black" d="M476.847,-862.033C448.014,-869.412 401.295,-881.368 362.17,-891.382"/>
<polygon fill="none" stroke="black" points="361.222,-888.011 352.402,-893.881 362.957,-894.793 361.222,-888.011"/>
</g>
<!-- \\Upload -->
<g id="node15" class="node"><title>\\Upload</title>
<a xlink:href="controllers.upload.html" xlink:title="Upload" target="_parent">
<polygon fill="none" stroke="black" points="532,-1089.08 476,-1089.08 476,-1053.08 532,-1053.08 532,-1089.08"/>
<text text-anchor="middle" x="504" y="-1068.18" font-family="Courier,monospace" font-size="11.00">Upload</text>
</a>
</g>
<!-- \\Upload&#45;&gt;\\Auth_Controller -->
<g id="edge25" class="edge"><title>\\Upload&#45;&gt;\\Auth_Controller</title>
<path fill="none" stroke="black" d="M475.202,-1064.13C460.38,-1059.77 442.443,-1053.21 428,-1044.08 380.869,-1014.31 337.397,-965.39 313.119,-935.331"/>
<polygon fill="none" stroke="black" points="315.76,-933.028 306.793,-927.384 310.283,-937.388 315.76,-933.028"/>
</g>
<!-- \\Login -->
<g id="node16" class="node"><title>\\Login</title>
<a xlink:href="controllers.login.html" xlink:title="Login" target="_parent">
<polygon fill="none" stroke="black" points="531,-387.084 477,-387.084 477,-351.084 531,-351.084 531,-387.084"/>
<text text-anchor="middle" x="504" y="-366.184" font-family="Courier,monospace" font-size="11.00">Login</text>
</a>
</g>
<!-- \\Login&#45;&gt;\\CI_Controller -->
<g id="edge27" class="edge"><title>\\Login&#45;&gt;\\CI_Controller</title>
<path fill="none" stroke="black" d="M476.775,-366.031C460.377,-362.77 440.346,-356.027 428,-342.084 319.944,-220.047 455.869,5.44503 293,-1.08377"/>
</g>
<!-- \\VerifyLogin -->
<g id="node17" class="node"><title>\\VerifyLogin</title>
<a xlink:href="controllers.verifylogin.html" xlink:title="VerifyLogin" target="_parent">
<polygon fill="none" stroke="black" points="549,-333.084 459,-333.084 459,-297.084 549,-297.084 549,-333.084"/>
<text text-anchor="middle" x="504" y="-312.184" font-family="Courier,monospace" font-size="11.00">VerifyLogin</text>
</a>
</g>
<!-- \\VerifyLogin&#45;&gt;\\CI_Controller -->
<g id="edge29" class="edge"><title>\\VerifyLogin&#45;&gt;\\CI_Controller</title>
<path fill="none" stroke="black" d="M458.384,-306.738C447.17,-302.738 436.078,-296.825 428,-288.084 344.296,-197.501 441.873,-108.612 356,-20.0838 335.637,0.908506 322.222,0.0876324 293,-1.08377"/>
</g>
<!-- \\Start -->
<g id="node18" class="node"><title>\\Start</title>
<a xlink:href="controllers.start.html" xlink:title="Start" target="_parent">
<polygon fill="none" stroke="black" points="531,-279.084 477,-279.084 477,-243.084 531,-243.084 531,-279.084"/>
<text text-anchor="middle" x="504" y="-258.184" font-family="Courier,monospace" font-size="11.00">Start</text>
</a>
</g>
<!-- \\Start&#45;&gt;\\CI_Controller -->
<g id="edge31" class="edge"><title>\\Start&#45;&gt;\\CI_Controller</title>
<path fill="none" stroke="black" d="M476.902,-257.492C460.76,-254.029 440.959,-247.263 428,-234.084 357.641,-162.532 428.072,-89.9106 356,-20.0838 334.996,0.266313 322.222,0.0876324 293,-1.08377"/>
</g>
<!-- \\Search -->
<g id="node19" class="node"><title>\\Search</title>
<a xlink:href="controllers.search.html" xlink:title="Search" target="_parent">
<polygon fill="none" stroke="black" points="532,-1035.08 476,-1035.08 476,-999.084 532,-999.084 532,-1035.08"/>
<text text-anchor="middle" x="504" y="-1014.18" font-family="Courier,monospace" font-size="11.00">Search</text>
</a>
</g>
<!-- \\Search&#45;&gt;\\Auth_Controller -->
<g id="edge33" class="edge"><title>\\Search&#45;&gt;\\Auth_Controller</title>
<path fill="none" stroke="black" d="M475.308,-1008.39C460.845,-1003.64 443.196,-997.254 428,-990.084 392.689,-973.422 354.75,-950.133 328.111,-932.802"/>
<polygon fill="none" stroke="black" points="329.811,-929.731 319.53,-927.171 325.97,-935.583 329.811,-929.731"/>
</g>
<!-- \\VerifyRegistration -->
<g id="node20" class="node"><title>\\VerifyRegistration</title>
<a xlink:href="controllers.verifyregistration.html" xlink:title="VerifyRegistration" target="_parent">
<polygon fill="none" stroke="black" points="573,-225.084 435,-225.084 435,-189.084 573,-189.084 573,-225.084"/>
<text text-anchor="middle" x="504" y="-204.184" font-family="Courier,monospace" font-size="11.00">VerifyRegistration</text>
</a>
</g>
<!-- \\VerifyRegistration&#45;&gt;\\CI_Controller -->
<g id="edge35" class="edge"><title>\\VerifyRegistration&#45;&gt;\\CI_Controller</title>
<path fill="none" stroke="black" d="M496.252,-188.738C473.241,-137.484 400.168,3.21217 293,-1.08377"/>
<path fill="none" stroke="black" d="M293,-1.08377C262.073,-2.32352 248.422,1.25362 226,-20.0838 164.536,-78.5746 103.649,-340.568 84.8774,-427.185"/>
<polygon fill="none" stroke="black" points="81.4301,-426.568 82.7515,-437.08 88.274,-428.039 81.4301,-426.568"/>
</g>
<!-- \\Auth_Controller&#45;&gt;\\CI_Controller -->
<g id="edge37" class="edge"><title>\\Auth_Controller&#45;&gt;\\CI_Controller</title>
<path fill="none" stroke="black" d="M233.72,-893.347C230.949,-891.488 228.35,-889.409 226,-887.084 109.249,-771.577 85.1888,-559.857 80.2599,-483.492"/>
<polygon fill="none" stroke="black" points="83.7382,-483.014 79.6628,-473.234 76.75,-483.421 83.7382,-483.014"/>
</g>
</g>
</svg>
