<?xml version="1.0" encoding="UTF-8" standalone="no"?>
<!DOCTYPE svg PUBLIC "-//W3C//DTD SVG 1.1//EN"
 "http://www.w3.org/Graphics/SVG/1.1/DTD/svg11.dtd">
<!-- Generated by graphviz version 2.26.3 (20100126.1600)
 -->
<!-- Title: G Pages: 1 -->
<svg width="604pt" height="1243pt"
 viewBox="0.00 0.00 604.00 1243.40" xmlns="http://www.w3.org/2000/svg" xmlns:xlink="http://www.w3.org/1999/xlink">
<g id="graph1" class="graph" transform="scale(1 1) rotate(0) translate(4 1239.4)">
<title>G</title>
<polygon fill="white" stroke="white" points="-4,5 -4,-1239.4 601,-1239.4 601,5 -4,5"/>
<g id="graph2" class="cluster"><title>cluster_global</title>
<polyline fill="none" stroke="gray" points="238,-181.404 576,-181.404 "/>
<path fill="none" stroke="gray" d="M576,-181.404C582,-181.404 588,-187.404 588,-193.404"/>
<polyline fill="none" stroke="gray" points="588,-193.404 588,-1215.4 "/>
<path fill="none" stroke="gray" d="M588,-1215.4C588,-1221.4 582,-1227.4 576,-1227.4"/>
<polyline fill="none" stroke="gray" points="576,-1227.4 238,-1227.4 "/>
<path fill="none" stroke="gray" d="M238,-1227.4C232,-1227.4 226,-1221.4 226,-1215.4"/>
<polyline fill="none" stroke="gray" points="226,-1215.4 226,-193.404 "/>
<path fill="none" stroke="gray" d="M226,-193.404C226,-187.404 232,-181.404 238,-181.404"/>
<text text-anchor="middle" x="407" y="-1213.5" font-family="Times Roman,serif" font-size="11.00" fill="gray">global</text>
</g>
<!-- \\FacebookApiException -->
<g id="node2" class="node"><title>\\FacebookApiException</title>
<a xlink:href="libraries.facebook.base_facebook.html" xlink:title="FacebookApiException" target="_parent">
<polygon fill="none" stroke="black" points="580,-765.404 428,-765.404 428,-729.404 580,-729.404 580,-765.404"/>
<text text-anchor="middle" x="504" y="-744.504" font-family="Courier,monospace" font-size="11.00">FacebookApiException</text>
</a>
</g>
<!-- \\Exception -->
<g id="node24" class="node"><title>\\Exception</title>
<ellipse fill="none" stroke="black" cx="293" cy="-155.404" rx="62.9325" ry="18.3848"/>
<text text-anchor="middle" x="293" y="-151.804" font-family="Times Roman,serif" font-size="14.00" fill="gray">\Exception</text>
</g>
<!-- \\FacebookApiException&#45;&gt;\\Exception -->
<g id="edge3" class="edge"><title>\\FacebookApiException&#45;&gt;\\Exception</title>
<path fill="none" stroke="black" d="M437.404,-729.314C433.916,-726.73 430.732,-723.778 428,-720.404 274.803,-531.205 509.706,-366.19 356,-177.404 354.544,-175.616 352.933,-173.972 351.201,-172.463"/>
<polygon fill="none" stroke="black" points="353.126,-169.537 342.929,-166.66 349.106,-175.268 353.126,-169.537"/>
</g>
<!-- \\BaseFacebook -->
<g id="node3" class="node"><title>\\BaseFacebook</title>
<a xlink:href="libraries.facebook.base_facebook.html" xlink:title="«abstract»&lt;br/&gt;BaseFacebook" target="_parent">
<polygon fill="none" stroke="black" points="342,-1197.4 244,-1197.4 244,-1161.4 342,-1161.4 342,-1197.4"/>
<text text-anchor="start" x="259" y="-1184.84" font-family="Courier,monospace" font-size="11.00">«abstract»</text>
<text text-anchor="start" x="252" y="-1171.64" font-family="Courier,monospace" font-size="11.00">BaseFacebook</text>
</a>
</g>
<!-- \\Facebook -->
<g id="node4" class="node"><title>\\Facebook</title>
<a xlink:href="libraries.facebook.facebook.html" xlink:title="Facebook" target="_parent">
<polygon fill="none" stroke="black" points="539,-1197.4 469,-1197.4 469,-1161.4 539,-1161.4 539,-1197.4"/>
<text text-anchor="middle" x="504" y="-1176.5" font-family="Courier,monospace" font-size="11.00">Facebook</text>
</a>
</g>
<!-- \\Facebook&#45;&gt;\\BaseFacebook -->
<g id="edge5" class="edge"><title>\\Facebook&#45;&gt;\\BaseFacebook</title>
<path fill="none" stroke="black" d="M468.207,-1179.4C436.717,-1179.4 390.231,-1179.4 353.054,-1179.4"/>
<polygon fill="none" stroke="black" points="352.835,-1175.9 342.835,-1179.4 352.835,-1182.9 352.835,-1175.9"/>
</g>
<!-- \\MY_Input -->
<g id="node5" class="node"><title>\\MY_Input</title>
<a xlink:href="libraries.my_input.html" xlink:title="MY_Input" target="_parent">
<polygon fill="none" stroke="black" points="539,-711.404 469,-711.404 469,-675.404 539,-675.404 539,-711.404"/>
<text text-anchor="middle" x="504" y="-690.504" font-family="Courier,monospace" font-size="11.00">MY_Input</text>
</a>
</g>
<!-- \\CI_Input -->
<g id="node27" class="node"><title>\\CI_Input</title>
<ellipse fill="none" stroke="black" cx="293" cy="-101.404" rx="56.0679" ry="18.3848"/>
<text text-anchor="middle" x="293" y="-97.8041" font-family="Times Roman,serif" font-size="14.00" fill="gray">\CI_Input</text>
</g>
<!-- \\MY_Input&#45;&gt;\\CI_Input -->
<g id="edge7" class="edge"><title>\\MY_Input&#45;&gt;\\CI_Input</title>
<path fill="none" stroke="black" d="M468.287,-688.95C453.658,-685.277 437.876,-678.586 428,-666.404 276.076,-479.008 501.895,-320.531 356,-128.404 353.009,-124.465 349.329,-121.094 345.261,-118.209"/>
<polygon fill="none" stroke="black" points="346.845,-115.078 336.467,-112.946 343.25,-121.085 346.845,-115.078"/>
</g>
<!-- \\Template -->
<g id="node6" class="node"><title>\\Template</title>
<a xlink:href="libraries.template.html" xlink:title="Template" target="_parent">
<polygon fill="none" stroke="black" points="539,-1035.4 469,-1035.4 469,-999.404 539,-999.404 539,-1035.4"/>
<text text-anchor="middle" x="504" y="-1014.5" font-family="Courier,monospace" font-size="11.00">Template</text>
</a>
</g>
<!-- \\Category_model -->
<g id="node7" class="node"><title>\\Category_model</title>
<a xlink:href="models.category_model.html" xlink:title="Category_model" target="_parent">
<polygon fill="none" stroke="black" points="559,-603.404 449,-603.404 449,-567.404 559,-567.404 559,-603.404"/>
<text text-anchor="middle" x="504" y="-582.504" font-family="Courier,monospace" font-size="11.00">Category_model</text>
</a>
</g>
<!-- \\CI_Model -->
<g id="node29" class="node"><title>\\CI_Model</title>
<ellipse fill="none" stroke="black" cx="293" cy="-47.4041" rx="58.1882" ry="18.3848"/>
<text text-anchor="middle" x="293" y="-43.8041" font-family="Times Roman,serif" font-size="14.00" fill="gray">\CI_Model</text>
</g>
<!-- \\Category_model&#45;&gt;\\CI_Model -->
<g id="edge9" class="edge"><title>\\Category_model&#45;&gt;\\CI_Model</title>
<path fill="none" stroke="black" d="M448.336,-573.753C440.583,-569.985 433.427,-565 428,-558.404 289.809,-390.476 488.788,-246.637 356,-74.4041 353.144,-70.6993 349.679,-67.4957 345.86,-64.7266"/>
<polygon fill="none" stroke="black" points="347.391,-61.5602 337.033,-59.3329 343.741,-67.5335 347.391,-61.5602"/>
</g>
<!-- \\Like_model -->
<g id="node8" class="node"><title>\\Like_model</title>
<a xlink:href="models.like_model.html" xlink:title="Like_model" target="_parent">
<polygon fill="none" stroke="black" points="546,-549.404 462,-549.404 462,-513.404 546,-513.404 546,-549.404"/>
<text text-anchor="middle" x="504" y="-528.504" font-family="Courier,monospace" font-size="11.00">Like_model</text>
</a>
</g>
<!-- \\Like_model&#45;&gt;\\CI_Model -->
<g id="edge11" class="edge"><title>\\Like_model&#45;&gt;\\CI_Model</title>
<path fill="none" stroke="black" d="M461.77,-524.895C449.215,-520.945 436.546,-514.598 428,-504.404 303.514,-355.909 475.706,-226.778 356,-74.4041 353.11,-70.7255 349.622,-67.54 345.788,-64.7829"/>
<polygon fill="none" stroke="black" points="347.302,-61.6076 336.939,-59.4062 343.667,-67.59 347.302,-61.6076"/>
</g>
<!-- \\Message_model -->
<g id="node9" class="node"><title>\\Message_model</title>
<a xlink:href="models.message_model.html" xlink:title="Message_model" target="_parent">
<polygon fill="none" stroke="black" points="556,-495.404 452,-495.404 452,-459.404 556,-459.404 556,-495.404"/>
<text text-anchor="middle" x="504" y="-474.504" font-family="Courier,monospace" font-size="11.00">Message_model</text>
</a>
</g>
<!-- \\Message_model&#45;&gt;\\CI_Model -->
<g id="edge13" class="edge"><title>\\Message_model&#45;&gt;\\CI_Model</title>
<path fill="none" stroke="black" d="M451.66,-466.967C442.715,-463.076 434.293,-457.735 428,-450.404 317.18,-321.295 462.663,-206.968 356,-74.4041 353.067,-70.7594 349.55,-67.5974 345.696,-64.8557"/>
<polygon fill="none" stroke="black" points="347.19,-61.6693 336.819,-59.5011 343.574,-67.6633 347.19,-61.6693"/>
</g>
<!-- \\User_model -->
<g id="node10" class="node"><title>\\User_model</title>
<a xlink:href="models.user_model.html" xlink:title="User_model" target="_parent">
<polygon fill="none" stroke="black" points="546,-441.404 462,-441.404 462,-405.404 546,-405.404 546,-441.404"/>
<text text-anchor="middle" x="504" y="-420.504" font-family="Courier,monospace" font-size="11.00">User_model</text>
</a>
</g>
<!-- \\User_model&#45;&gt;\\CI_Model -->
<g id="edge15" class="edge"><title>\\User_model&#45;&gt;\\CI_Model</title>
<path fill="none" stroke="black" d="M461.698,-416.49C449.29,-412.516 436.725,-406.259 428,-396.404 330.786,-286.612 449.678,-187.228 356,-74.4041 353.012,-70.805 349.455,-67.6745 345.576,-64.9537"/>
<polygon fill="none" stroke="black" points="347.043,-61.7529 336.663,-59.6287 343.453,-67.7621 347.043,-61.7529"/>
</g>
<!-- \\Item_model -->
<g id="node11" class="node"><title>\\Item_model</title>
<a xlink:href="models.item_model.html" xlink:title="Item_model" target="_parent">
<polygon fill="none" stroke="black" points="546,-387.404 462,-387.404 462,-351.404 546,-351.404 546,-387.404"/>
<text text-anchor="middle" x="504" y="-366.504" font-family="Courier,monospace" font-size="11.00">Item_model</text>
</a>
</g>
<!-- \\Item_model&#45;&gt;\\CI_Model -->
<g id="edge17" class="edge"><title>\\Item_model&#45;&gt;\\CI_Model</title>
<path fill="none" stroke="black" d="M461.947,-362.265C449.552,-358.279 436.933,-352.071 428,-342.404 344.296,-251.822 436.784,-167.599 356,-74.4041 352.807,-70.7203 349.022,-67.5241 344.917,-64.7537"/>
<polygon fill="none" stroke="black" points="346.533,-61.6444 336.128,-59.6455 343.015,-67.6965 346.533,-61.6444"/>
</g>
<!-- \\Upload_model -->
<g id="node12" class="node"><title>\\Upload_model</title>
<a xlink:href="models.upload_model.html" xlink:title="Upload_model" target="_parent">
<polygon fill="none" stroke="black" points="553,-657.404 455,-657.404 455,-621.404 553,-621.404 553,-657.404"/>
<text text-anchor="middle" x="504" y="-636.504" font-family="Courier,monospace" font-size="11.00">Upload_model</text>
</a>
</g>
<!-- \\Upload_model&#45;&gt;\\CI_Model -->
<g id="edge19" class="edge"><title>\\Upload_model&#45;&gt;\\CI_Model</title>
<path fill="none" stroke="black" d="M454.843,-630.701C444.62,-626.709 434.878,-620.888 428,-612.404 276.076,-425.008 501.895,-266.531 356,-74.4041 353.171,-70.6785 349.725,-67.4604 345.918,-64.6819"/>
<polygon fill="none" stroke="black" points="347.462,-61.5228 337.109,-59.2747 343.801,-67.4887 347.462,-61.5228"/>
</g>
<!-- \\Like -->
<g id="node13" class="node"><title>\\Like</title>
<a xlink:href="controllers.like.html" xlink:title="Like" target="_parent">
<polygon fill="none" stroke="black" points="531,-1089.4 477,-1089.4 477,-1053.4 531,-1053.4 531,-1089.4"/>
<text text-anchor="middle" x="504" y="-1068.5" font-family="Courier,monospace" font-size="11.00">Like</text>
</a>
</g>
<!-- \\Auth_Controller -->
<g id="node22" class="node"><title>\\Auth_Controller</title>
<a xlink:href="core.MY_Controller.html" xlink:title="Auth_Controller" target="_parent">
<polygon fill="none" stroke="black" points="352,-927.404 234,-927.404 234,-891.404 352,-891.404 352,-927.404"/>
<text text-anchor="middle" x="293" y="-906.504" font-family="Courier,monospace" font-size="11.00">Auth_Controller</text>
</a>
</g>
<!-- \\Like&#45;&gt;\\Auth_Controller -->
<g id="edge21" class="edge"><title>\\Like&#45;&gt;\\Auth_Controller</title>
<path fill="none" stroke="black" d="M476.649,-1064.88C461.56,-1060.51 442.916,-1053.83 428,-1044.4 380.869,-1014.63 337.397,-965.71 313.119,-935.651"/>
<polygon fill="none" stroke="black" points="315.76,-933.348 306.793,-927.704 310.283,-937.708 315.76,-933.348"/>
</g>
<!-- \\User -->
<g id="node14" class="node"><title>\\User</title>
<a xlink:href="controllers.user.html" xlink:title="User" target="_parent">
<polygon fill="none" stroke="black" points="531,-981.404 477,-981.404 477,-945.404 531,-945.404 531,-981.404"/>
<text text-anchor="middle" x="504" y="-960.504" font-family="Courier,monospace" font-size="11.00">User</text>
</a>
</g>
<!-- \\User&#45;&gt;\\Auth_Controller -->
<g id="edge23" class="edge"><title>\\User&#45;&gt;\\Auth_Controller</title>
<path fill="none" stroke="black" d="M476.847,-956.455C448.014,-949.076 401.295,-937.119 362.17,-927.106"/>
<polygon fill="none" stroke="black" points="362.957,-923.695 352.402,-924.606 361.222,-930.477 362.957,-923.695"/>
</g>
<!-- \\Item -->
<g id="node15" class="node"><title>\\Item</title>
<a xlink:href="controllers.item.html" xlink:title="Item" target="_parent">
<polygon fill="none" stroke="black" points="531,-927.404 477,-927.404 477,-891.404 531,-891.404 531,-927.404"/>
<text text-anchor="middle" x="504" y="-906.504" font-family="Courier,monospace" font-size="11.00">Item</text>
</a>
</g>
<!-- \\Item&#45;&gt;\\Auth_Controller -->
<g id="edge25" class="edge"><title>\\Item&#45;&gt;\\Auth_Controller</title>
<path fill="none" stroke="black" d="M476.847,-909.404C448.137,-909.404 401.691,-909.404 362.667,-909.404"/>
<polygon fill="none" stroke="black" points="362.402,-905.904 352.402,-909.404 362.402,-912.904 362.402,-905.904"/>
</g>
<!-- \\Upload -->
<g id="node16" class="node"><title>\\Upload</title>
<a xlink:href="controllers.upload.html" xlink:title="Upload" target="_parent">
<polygon fill="none" stroke="black" points="532,-873.404 476,-873.404 476,-837.404 532,-837.404 532,-873.404"/>
<text text-anchor="middle" x="504" y="-852.504" font-family="Courier,monospace" font-size="11.00">Upload</text>
</a>
</g>
<!-- \\Upload&#45;&gt;\\Auth_Controller -->
<g id="edge27" class="edge"><title>\\Upload&#45;&gt;\\Auth_Controller</title>
<path fill="none" stroke="black" d="M475.104,-862.799C446.197,-870.197 400.644,-881.855 362.331,-891.661"/>
<polygon fill="none" stroke="black" points="361.07,-888.37 352.25,-894.241 362.806,-895.152 361.07,-888.37"/>
</g>
<!-- \\Message -->
<g id="node17" class="node"><title>\\Message</title>
<a xlink:href="controllers.message.html" xlink:title="Message" target="_parent">
<polygon fill="none" stroke="black" points="536,-819.404 472,-819.404 472,-783.404 536,-783.404 536,-819.404"/>
<text text-anchor="middle" x="504" y="-798.504" font-family="Courier,monospace" font-size="11.00">Message</text>
</a>
</g>
<!-- \\Message&#45;&gt;\\Auth_Controller -->
<g id="edge29" class="edge"><title>\\Message&#45;&gt;\\Auth_Controller</title>
<path fill="none" stroke="black" d="M471.875,-810.104C457.911,-814.563 441.657,-820.695 428,-828.404 394.647,-847.233 392.265,-864.418 357.489,-886.017"/>
<polygon fill="none" stroke="black" points="355.328,-883.226 348.468,-891.3 358.866,-889.266 355.328,-883.226"/>
</g>
<!-- \\Login -->
<g id="node18" class="node"><title>\\Login</title>
<a xlink:href="controllers.login.html" xlink:title="Login" target="_parent">
<polygon fill="none" stroke="black" points="531,-333.404 477,-333.404 477,-297.404 531,-297.404 531,-333.404"/>
<text text-anchor="middle" x="504" y="-312.504" font-family="Courier,monospace" font-size="11.00">Login</text>
</a>
</g>
<!-- \\CI_Controller -->
<g id="node41" class="node"><title>\\CI_Controller</title>
<ellipse fill="none" stroke="black" cx="79" cy="-455.404" rx="79.196" ry="18.3848"/>
<text text-anchor="middle" x="79" y="-451.804" font-family="Times Roman,serif" font-size="14.00" fill="gray">\CI_Controller</text>
</g>
<!-- \\Login&#45;&gt;\\CI_Controller -->
<g id="edge31" class="edge"><title>\\Login&#45;&gt;\\CI_Controller</title>
<path fill="none" stroke="black" d="M476.979,-312.167C460.659,-308.835 440.639,-302.082 428,-288.404 332.333,-184.875 432.938,15.5588 293,-1.40413"/>
</g>
<!-- \\VerifyLogin -->
<g id="node19" class="node"><title>\\VerifyLogin</title>
<a xlink:href="controllers.verifylogin.html" xlink:title="VerifyLogin" target="_parent">
<polygon fill="none" stroke="black" points="549,-279.404 459,-279.404 459,-243.404 549,-243.404 549,-279.404"/>
<text text-anchor="middle" x="504" y="-258.504" font-family="Courier,monospace" font-size="11.00">VerifyLogin</text>
</a>
</g>
<!-- \\VerifyLogin&#45;&gt;\\CI_Controller -->
<g id="edge33" class="edge"><title>\\VerifyLogin&#45;&gt;\\CI_Controller</title>
<path fill="none" stroke="black" d="M458.346,-252.575C447.264,-248.581 436.247,-242.791 428,-234.404 357.641,-162.852 428.072,-90.2309 356,-20.4041 334.996,-0.0540448 322.033,2.1152 293,-1.40413"/>
</g>
<!-- \\Search -->
<g id="node20" class="node"><title>\\Search</title>
<a xlink:href="controllers.search.html" xlink:title="Search" target="_parent">
<polygon fill="none" stroke="black" points="532,-1143.4 476,-1143.4 476,-1107.4 532,-1107.4 532,-1143.4"/>
<text text-anchor="middle" x="504" y="-1122.5" font-family="Courier,monospace" font-size="11.00">Search</text>
</a>
</g>
<!-- \\Search&#45;&gt;\\Auth_Controller -->
<g id="edge35" class="edge"><title>\\Search&#45;&gt;\\Auth_Controller</title>
<path fill="none" stroke="black" d="M475.278,-1119.61C460.129,-1115.52 441.865,-1108.86 428,-1098.4 369.424,-1054.25 325.927,-977.409 305.657,-936.634"/>
<polygon fill="none" stroke="black" points="308.761,-935.014 301.234,-927.558 302.469,-938.08 308.761,-935.014"/>
</g>
<!-- \\VerifyRegistration -->
<g id="node21" class="node"><title>\\VerifyRegistration</title>
<a xlink:href="controllers.verifyregistration.html" xlink:title="VerifyRegistration" target="_parent">
<polygon fill="none" stroke="black" points="573,-225.404 435,-225.404 435,-189.404 573,-189.404 573,-225.404"/>
<text text-anchor="middle" x="504" y="-204.504" font-family="Courier,monospace" font-size="11.00">VerifyRegistration</text>
</a>
</g>
<!-- \\VerifyRegistration&#45;&gt;\\CI_Controller -->
<g id="edge37" class="edge"><title>\\VerifyRegistration&#45;&gt;\\CI_Controller</title>
<path fill="none" stroke="black" d="M496.674,-189.341C474.041,-136.777 400.237,11.5949 293,-1.40413"/>
<path fill="none" stroke="black" d="M293,-1.40413C262.273,-5.12879 248.422,0.933265 226,-20.4041 164.536,-78.895 103.649,-340.889 84.8774,-427.505"/>
<polygon fill="none" stroke="black" points="81.4301,-426.888 82.7515,-437.401 88.274,-428.359 81.4301,-426.888"/>
</g>
<!-- \\Auth_Controller&#45;&gt;\\CI_Controller -->
<g id="edge39" class="edge"><title>\\Auth_Controller&#45;&gt;\\CI_Controller</title>
<path fill="none" stroke="black" d="M233.72,-893.668C230.949,-891.808 228.35,-889.729 226,-887.404 109.249,-771.898 85.1888,-560.178 80.2599,-483.812"/>
<polygon fill="none" stroke="black" points="83.7382,-483.334 79.6628,-473.555 76.75,-483.741 83.7382,-483.334"/>
</g>
</g>
</svg>
